<svg xmlns="http://www.w3.org/2000/svg" viewBox="0 0 800 180" role="img" aria-labelledby="title desc">
  <title id="title">Banner Comércio Local</title>
  <desc id="desc">Ilustração abstrata leve para a seção de comércio local.</desc>
  <defs>
    <linearGradient id="bg" x1="0" x2="1" y1="0" y2="1">
      <stop offset="0" stop-color="#312e81"/>
      <stop offset="0.55" stop-color="#4338ca"/>
      <stop offset="1" stop-color="#0f766e"/>
    </linearGradient>
    <linearGradient id="shine" x1="0" x2="1">
      <stop offset="0" stop-color="#ffffff" stop-opacity="0.2"/>
      <stop offset="1" stop-color="#ffffff" stop-opacity="0"/>
    </linearGradient>
  </defs>
  <rect width="800" height="180" fill="url(#bg)"/>
  <circle cx="690" cy="28" r="110" fill="#ffffff" opacity="0.08"/>
  <circle cx="620" cy="162" r="78" fill="#ffffff" opacity="0.07"/>
  <path d="M0 142 C140 96 270 198 420 130 C560 68 700 118 800 74 L800 180 L0 180 Z" fill="#ffffff" opacity="0.08"/>
  <g transform="translate(502 44)" opacity="0.88">
    <rect x="0" y="42" width="162" height="76" rx="14" fill="#fff" opacity="0.17"/>
    <path d="M16 42 L28 10 H134 L150 42 Z" fill="#fff" opacity="0.24"/>
    <rect x="24" y="60" width="38" height="58" rx="8" fill="#fff" opacity="0.24"/>
    <rect x="78" y="62" width="54" height="28" rx="8" fill="#fff" opacity="0.18"/>
    <circle cx="36" cy="28" r="8" fill="#fbbf24" opacity="0.9"/>
    <circle cx="62" cy="28" r="8" fill="#34d399" opacity="0.8"/>
    <circle cx="88" cy="28" r="8" fill="#60a5fa" opacity="0.8"/>
    <circle cx="114" cy="28" r="8" fill="#f472b6" opacity="0.8"/>
  </g>
  <rect x="0" y="0" width="420" height="180" fill="url(#shine)"/>
</svg>
